<svg width="88" height="88" viewBox="0 0 88 88" fill="none" xmlns="http://www.w3.org/2000/svg">
<g filter="url(#filter0_d_298_813)">
<path d="M27.4633 56.9506C27.104 53.0273 26.8033 44.4106 26.6933 40.612C26.9097 39.7393 28.1233 39.1123 28.6733 38.8996C36.8793 38.8446 54.021 38.72 57.09 38.72C60.1407 38.72 61.193 40.4506 61.336 41.3416C61.1197 42.6616 60.6943 47.014 60.6943 53.9C60.6943 62.4983 52.4517 77 44.121 77C35.7903 77 27.929 61.8566 27.4633 56.9506Z" fill="url(#paint0_linear_298_813)"/>
<path d="M37.4513 43.4134C34.6402 43.2667 31.845 42.9685 29.0657 42.5187C30.602 43.3913 35.8453 45.1037 44.5867 45.1037C55.5207 45.1037 60.016 42.999 60.016 41.7157C60.016 40.6633 58.9967 40.0584 58.4797 39.8604L57.0717 40.1647C57.1817 40.3187 57.2367 40.5094 57.233 40.7C55.7663 43.6774 48.7777 44.088 44.5683 44.088C41.2317 44.088 38.4303 43.6407 37.433 43.4097L37.4513 43.4134Z" fill="url(#paint1_linear_298_813)"/>
<path d="M44.5207 43.5893C35.4933 43.5893 33.495 41.4113 33.6197 40.304H55.3813V40.7146C55.528 41.6606 53.548 43.5893 44.5207 43.5893Z" fill="#26203A"/>
<path d="M44.5133 42.4674C38.5917 42.4674 37.2717 41.0374 37.378 40.326H51.6303V40.5754C51.722 41.1987 50.4203 42.4674 44.4987 42.4674H44.5133Z" fill="#4470D1"/>
<path d="M26.7483 40.9677C26.7483 40.3443 27.6907 39.523 28.1747 39.1857L29.568 39.721L28.9777 42.4673C28.2419 42.3032 27.5199 42.0825 26.818 41.8073C26.755 41.5384 26.7303 41.2619 26.7447 40.986L26.7483 40.9677Z" fill="#335CA7"/>
<path d="M28.16 41.2023C28.16 41.8769 28.853 42.4123 29.1903 42.5919C30.976 42.8963 35.1487 43.5013 37.576 43.4646C32.9377 42.8046 31.6873 40.9346 31.6727 40.0766L29.37 39.7209C28.9777 39.9153 28.16 40.5239 28.16 41.1986" fill="#496BAC"/>
<path d="M33.8323 40.502L31.548 40.073C31.603 41.4113 33.6893 43.9817 41.4847 43.5197C35.651 43.2483 33.957 41.393 33.814 40.4837L33.8323 40.502Z" fill="#9EA3B6"/>
<path d="M41.184 43.5161H38.115C50.2077 45.2797 58.2523 42.4087 57.0607 40.1244L55.0073 40.4837C55.0257 43.3364 45.804 43.6921 41.184 43.5161Z" fill="url(#paint2_linear_298_813)"/>
<path d="M53.702 40.6633H35.2037C33.2603 40.6633 28.6037 40.0913 25.5713 37.8473C21.736 35.0093 22.9313 27.6247 23.3603 26.037C23.7893 24.4677 27.7493 11 43.945 11C60.159 11 65.175 25.63 65.351 27.8373V27.9107C65.6965 30.7136 65.2254 33.5566 63.9943 36.0983C62.6377 39.1307 56.661 40.4323 53.702 40.6633Z" fill="url(#paint3_linear_298_813)"/>
<path d="M50.402 18.2967H38.1113C35.0423 18.2967 28.138 19.0117 28.138 25.6667C28.138 32.3217 33.7773 39.0427 43.747 39.0427C53.7203 39.0427 59.5173 33.1027 59.5173 25.663C59.5173 19.7047 53.4527 18.26 50.402 18.2967Z" fill="#FFFFBA"/>
<path d="M50.1857 18.6377H38.2873C35.31 18.6377 28.6367 19.3161 28.6367 25.773C28.6367 32.1934 34.0963 38.687 43.7287 38.687C53.3793 38.687 58.9967 32.9781 58.9967 25.7547C58.9967 19.9907 53.1117 18.6194 50.1673 18.6194L50.1857 18.6377Z" fill="url(#paint4_linear_298_813)"/>
<path d="M24.486 23.7379C24.112 23.7893 23.485 25.6446 23.2173 26.5539C22.9386 28.1202 22.7963 29.7077 22.792 31.2986C22.8287 32.9046 23.0927 33.4033 23.2173 33.4399C23.9323 33.4399 24.486 31.2986 24.6473 29.7293C24.8233 28.1783 24.9663 23.6646 24.486 23.7379Z" fill="#C9D3E8"/>
<path d="M24.5373 24.5557C24.1963 24.607 23.6463 26.1617 23.4117 26.9097C23.287 27.6577 23.0193 29.513 23.056 30.833C23.0927 32.153 23.3053 32.582 23.4117 32.6187C24.0533 32.6187 24.5373 30.833 24.6583 29.5313C24.8233 28.248 24.948 24.5007 24.5373 24.5557Z" fill="#251F38"/>
<path d="M19.0227 23.4153C19.0227 30.0666 21.076 32.153 22.11 32.351C24.1633 32.351 23.7343 28.8346 23.4667 22.1833C23.199 15.532 22.341 11.9093 21.7727 11.9093C21.2043 11.9093 19.041 15.0993 19.041 23.4153H19.0227Z" fill="url(#paint5_linear_298_813)"/>
<path d="M22.5793 17.3361C20.7607 17.6367 19.459 17.3361 19.316 17.3361C19.0997 17.3874 19.1913 17.6221 19.2427 17.7467C19.4223 17.7981 19.921 17.8897 20.7607 17.8897C21.813 17.8897 22.473 17.8164 22.5793 17.7431C22.6527 17.6734 22.616 17.4424 22.5793 17.3361Z" fill="#FFFFBA"/>
<path d="M19.9687 29.8026C20.1997 29.1609 20.4307 28.2516 20.4307 27.1259C20.4307 25.5383 19.5947 24.4126 19.0373 23.9139C19.074 26.5906 19.47 28.4973 19.9687 29.8026Z" fill="url(#paint6_linear_298_813)"/>
<path d="M63.5103 23.7379C63.9027 23.7893 64.526 25.6446 64.7937 26.5539C64.9733 27.4816 65.2593 29.7109 65.2227 31.2986C65.1677 32.9046 64.9183 33.4033 64.7937 33.4399C64.0823 33.4399 63.5103 31.2986 63.3673 29.7293C63.1877 28.1783 63.0483 23.6646 63.5103 23.7379Z" fill="#C9D3E8"/>
<path d="M63.4773 24.5557C63.8147 24.607 64.3683 26.1617 64.581 26.9097C64.7277 27.6577 64.9917 29.513 64.9403 30.833C64.922 32.153 64.691 32.582 64.581 32.6187C63.9577 32.6187 63.4773 30.833 63.3343 29.5313C63.1913 28.248 63.0667 24.5007 63.4773 24.5557Z" fill="#251F38"/>
<path d="M68.97 23.4153C68.97 30.0666 66.9167 32.153 65.901 32.351C63.8477 32.351 64.2583 28.8346 64.5443 22.1833C64.812 15.5283 65.6663 11.9093 66.2383 11.9093C66.8103 11.9093 68.97 15.0993 68.97 23.4153Z" fill="url(#paint7_linear_298_813)"/>
<path d="M65.439 17.3361C67.2577 17.6367 68.5593 17.3361 68.7023 17.3361C68.9187 17.3874 68.827 17.6221 68.7573 17.7467C68.2636 17.8592 67.7637 17.9068 67.2577 17.8897C66.2053 17.8897 65.5453 17.8164 65.439 17.7431C65.351 17.6734 65.4023 17.4424 65.439 17.3361Z" fill="#FFFFBA"/>
<path d="M68.0277 29.8026C67.7213 28.9439 67.5698 28.0376 67.5803 27.1259C67.5803 25.5383 68.42 24.4126 68.9737 23.9139C69.003 25.9169 68.6828 27.9096 68.0277 29.8026Z" fill="url(#paint8_linear_298_813)"/>
<path d="M49.8483 19.0117H38.5917C35.7757 19.0117 29.4433 19.6717 29.4433 25.861C29.4433 32.0687 34.6133 38.3093 43.7653 38.3093C52.8953 38.3093 58.234 32.7983 58.234 25.861C58.234 20.3317 52.6497 18.9933 49.8483 19.0117Z" fill="url(#paint9_linear_298_813)"/>
<path d="M56.826 31.6433C52.8832 33.3724 48.6082 34.2124 44.3043 34.1036C38.4157 34.1036 34.0817 33.1613 31.4233 32.34C33.726 35.783 37.9353 38.3166 43.769 38.3166C50.1527 38.3166 54.6663 35.64 56.8223 31.6433" fill="#483D6F"/>
<path d="M35.046 24.2513H32.0137C32.1955 23.3732 32.6781 22.586 33.3783 22.0257C34.0785 21.4654 34.9524 21.1671 35.849 21.1823L35.046 24.2513ZM39.5047 21.2007H36.168L35.4713 24.2H39.5047V21.2007ZM31.9073 24.5923H34.9763L34.6903 25.839H31.5847L31.9073 24.5923Z" fill="url(#paint10_linear_298_813)"/>
<path d="M37.939 31.0641C40.0767 31.0641 41.8073 29.2417 41.8073 26.9941C41.8073 24.7501 40.0767 22.9314 37.939 22.9314C35.8013 22.9314 34.0633 24.7501 34.0633 26.9977C34.0633 29.2417 35.7977 31.0641 37.9353 31.0641" fill="url(#paint11_linear_298_813)"/>
<path d="M50.831 31.0641C52.9687 31.0641 54.703 29.2417 54.703 26.9941C54.703 24.7501 52.9687 22.9314 50.831 22.9314C48.6933 22.9314 46.9627 24.7501 46.9627 26.9977C46.9627 29.2417 48.6933 31.0641 50.831 31.0641Z" fill="url(#paint12_linear_298_813)"/>
<path d="M32.6003 19.6167C31.7093 18.5497 30.6387 16.5513 30.173 15.5503L30.833 15.037C30.9063 15.7117 32.3363 18.2087 33.066 19.3673C32.956 19.459 32.725 19.6167 32.6003 19.6167ZM55.022 19.5507C56.1039 18.4007 57.0444 17.1254 57.8233 15.752L57.1083 15.2167C56.9837 15.8767 55.4143 18.161 54.5417 19.2647C54.682 19.3899 54.845 19.487 55.022 19.5507Z" fill="#FFFFBA"/>
<path d="M26.697 42.8267V43.2373C26.521 45.3053 26.125 49.5513 26.125 49.8887C26.125 50.226 26.9317 52.4223 27.3387 53.493C27.588 52.7963 28.0903 50.7613 28.0903 48.213C28.0903 45.661 27.1627 43.5747 26.697 42.823" fill="#28233E"/>
<path d="M19.2757 58.8061C19.2757 66.2457 21.6663 68.5814 22.8433 68.8307C26.2497 68.8307 27.4817 60.4634 27.6577 56.2907C28.0683 51.8137 28.2663 42.8781 25.839 42.8781C22.8067 42.8781 19.2757 49.5294 19.2757 58.8061Z" fill="url(#paint13_linear_298_813)"/>
<path d="M19.9503 60.181C19.9503 62.7844 20.6653 63.4627 21.0393 63.481C21.9303 63.481 21.9157 61.16 21.7873 60.0014C21.8057 58.289 21.681 54.868 21.0393 54.868C20.2547 54.868 19.9503 56.9324 19.9503 60.181Z" fill="#2BB3A4"/>
<path d="M23.2357 60.995C20.878 60.995 19.5947 61.1747 19.129 61.2627L19.0227 60.7274C19.525 60.6394 20.845 60.4597 23.2357 60.4597C25.3037 60.4597 26.444 60.7457 27.1223 60.907L27.445 60.995L27.2983 61.5304L26.9793 61.4424C25.7584 61.1198 24.4983 60.9692 23.2357 60.995Z" fill="#FFFFBA"/>
<path d="M68.3283 58.8061C68.3283 66.2457 65.956 68.5814 64.7607 68.8307C61.3727 68.8307 60.1223 60.4634 59.9427 56.2907C59.5503 51.8137 59.356 42.8781 61.7797 42.8781C64.8157 42.8781 68.3283 49.5294 68.3283 58.8061Z" fill="url(#paint14_linear_298_813)"/>
<path d="M67.672 60.181C67.672 62.7844 66.9387 63.4627 66.5647 63.481C65.692 63.481 65.7103 61.16 65.8167 60.0014C65.8167 58.289 65.9413 54.868 66.5647 54.868C67.3713 54.868 67.672 56.9324 67.672 60.181Z" fill="#2BB3A4"/>
<path d="M64.3647 60.995C66.7407 60.995 68.024 61.1747 68.4713 61.2627L68.5923 60.7274C68.0937 60.6394 66.759 60.4597 64.3647 60.4597C62.2967 60.4597 61.1747 60.7457 60.478 60.907L60.1737 60.995L60.2983 61.5304L60.621 61.4424C61.3323 61.2627 62.3663 60.995 64.3647 60.995Z" fill="#FFFFBA"/>
<path d="M37.6823 49.2983L35.2367 55.3299H36.6667L39.0903 49.5733C39.121 49.514 39.1673 49.4643 39.2241 49.4294C39.281 49.3945 39.3463 49.3758 39.413 49.3753C39.4787 49.3761 39.543 49.3946 39.5991 49.4288C39.6552 49.463 39.7011 49.5116 39.732 49.5696L42.0163 55.3299H43.4793L41.107 49.3203C40.9684 48.9807 40.7311 48.6906 40.4259 48.4873C40.1206 48.284 39.7614 48.1769 39.3947 48.1799C39.03 48.1755 38.6723 48.2798 38.3673 48.4797C38.0623 48.6795 37.8238 48.9658 37.6823 49.3019M44.4437 48.1799H45.9067V55.3299H44.44V48.1799M47.399 55.3666V54.0283H51.6817C52.1803 54.0283 52.591 53.6359 52.591 53.1739C52.5806 52.9457 52.4817 52.7305 52.3155 52.5738C52.1492 52.4171 51.9285 52.3312 51.7 52.3343H49.379C48.202 52.3343 47.2377 51.4249 47.2377 50.3029C47.2377 49.1809 48.202 48.2679 49.379 48.2679H53.2877V49.5329H49.4523C48.9683 49.5329 48.5577 49.9106 48.5577 50.3763C48.5577 50.8163 48.9683 51.1939 49.4523 51.1939H51.645C52.877 51.1939 53.856 52.1399 53.856 53.2839C53.8489 53.5663 53.7859 53.8444 53.6707 54.1023C53.5555 54.3601 53.3903 54.5926 53.1847 54.7863C52.9791 54.9799 52.7372 55.1309 52.4729 55.2305C52.2087 55.3301 51.9273 55.3764 51.645 55.3666H47.399Z" fill="url(#paint15_linear_298_813)"/>
</g>
<defs>
<filter id="filter0_d_298_813" x="-0.977325" y="-5" width="89.9528" height="106" filterUnits="userSpaceOnUse" color-interpolation-filters="sRGB">
<feFlood flood-opacity="0" result="BackgroundImageFix"/>
<feColorMatrix in="SourceAlpha" type="matrix" values="0 0 0 0 0 0 0 0 0 0 0 0 0 0 0 0 0 0 127 0" result="hardAlpha"/>
<feOffset dy="4"/>
<feGaussianBlur stdDeviation="10"/>
<feComposite in2="hardAlpha" operator="out"/>
<feColorMatrix type="matrix" values="0 0 0 0 0.266667 0 0 0 0 0.952941 0 0 0 0 0.792157 0 0 0 0.75 0"/>
<feBlend mode="normal" in2="BackgroundImageFix" result="effect1_dropShadow_298_813"/>
<feBlend mode="normal" in="SourceGraphic" in2="effect1_dropShadow_298_813" result="shape"/>
</filter>
<linearGradient id="paint0_linear_298_813" x1="61.336" y1="43.5013" x2="31.6727" y2="66.528" gradientUnits="userSpaceOnUse">
<stop stop-color="#89B9ED"/>
<stop offset="0.89" stop-color="#44F3CA"/>
<stop offset="1" stop-color="#6095D0"/>
</linearGradient>
<linearGradient id="paint1_linear_298_813" x1="33.7407" y1="43.9267" x2="58.5163" y2="43.9267" gradientUnits="userSpaceOnUse">
<stop stop-color="#6192E0"/>
<stop offset="1" stop-color="#97C1EF"/>
</linearGradient>
<linearGradient id="paint2_linear_298_813" x1="39.8457" y1="44.3007" x2="56.5583" y2="42.5884" gradientUnits="userSpaceOnUse">
<stop stop-color="#B9C5DE"/>
<stop offset="1" stop-color="#667AB0"/>
</linearGradient>
<linearGradient id="paint3_linear_298_813" x1="44.1393" y1="11" x2="44.1393" y2="40.6633" gradientUnits="userSpaceOnUse">
<stop stop-color="#72CDFF"/>
<stop offset="0.84" stop-color="#53E6D1"/>
<stop offset="0.98" stop-color="#4A6DD8"/>
</linearGradient>
<linearGradient id="paint4_linear_298_813" x1="43.835" y1="18.6194" x2="43.835" y2="38.687" gradientUnits="userSpaceOnUse">
<stop stop-color="#8091BF"/>
<stop offset="1" stop-color="#D2DBED"/>
</linearGradient>
<linearGradient id="paint5_linear_298_813" x1="21.362" y1="11.9093" x2="21.362" y2="32.351" gradientUnits="userSpaceOnUse">
<stop stop-color="#72CDFF"/>
<stop offset="1" stop-color="#1AFEF6"/>
</linearGradient>
<linearGradient id="paint6_linear_298_813" x1="19.7377" y1="23.9139" x2="19.7377" y2="29.8026" gradientUnits="userSpaceOnUse">
<stop stop-color="#32469F"/>
<stop offset="1" stop-color="#5EA3E0"/>
</linearGradient>
<linearGradient id="paint7_linear_298_813" x1="66.6307" y1="11.9093" x2="66.6307" y2="32.351" gradientUnits="userSpaceOnUse">
<stop stop-color="#72CDFF"/>
<stop offset="1" stop-color="#1AFEF6"/>
</linearGradient>
<linearGradient id="paint8_linear_298_813" x1="68.277" y1="23.9139" x2="68.277" y2="29.8026" gradientUnits="userSpaceOnUse">
<stop stop-color="#32469F"/>
<stop offset="1" stop-color="#5EA3E0"/>
</linearGradient>
<linearGradient id="paint9_linear_298_813" x1="29.4433" y1="25.2707" x2="57.717" y2="25.2707" gradientUnits="userSpaceOnUse">
<stop stop-color="#27213B"/>
<stop offset="0.61" stop-color="#4A3F73"/>
<stop offset="1" stop-color="#28223C"/>
</linearGradient>
<linearGradient id="paint10_linear_298_813" x1="35.5447" y1="21.1823" x2="34.991" y2="26.873" gradientUnits="userSpaceOnUse">
<stop stop-color="#9490A1"/>
<stop offset="1" stop-color="#9490A1" stop-opacity="0"/>
</linearGradient>
<linearGradient id="paint11_linear_298_813" x1="37.939" y1="22.9314" x2="37.939" y2="31.0641" gradientUnits="userSpaceOnUse">
<stop stop-color="#FFF962"/>
<stop offset="1" stop-color="#FCBE43"/>
</linearGradient>
<linearGradient id="paint12_linear_298_813" x1="50.831" y1="22.9314" x2="50.831" y2="31.0641" gradientUnits="userSpaceOnUse">
<stop stop-color="#FFF962"/>
<stop offset="1" stop-color="#FCBE43"/>
</linearGradient>
<linearGradient id="paint13_linear_298_813" x1="23.5913" y1="42.8781" x2="23.5913" y2="68.8307" gradientUnits="userSpaceOnUse">
<stop stop-color="#87B7FD"/>
<stop offset="1" stop-color="#44F3CA"/>
</linearGradient>
<linearGradient id="paint14_linear_298_813" x1="64.0127" y1="42.8781" x2="64.0127" y2="68.8307" gradientUnits="userSpaceOnUse">
<stop stop-color="#87B7FD"/>
<stop offset="1" stop-color="#44F3CA"/>
</linearGradient>
<linearGradient id="paint15_linear_298_813" x1="44.6687" y1="49.7507" x2="53.7629" y2="60.9848" gradientUnits="userSpaceOnUse">
<stop stop-color="#1C3C77"/>
<stop offset="1" stop-color="#041038"/>
</linearGradient>
</defs>
</svg>
